<svg version="1.2" xmlns="http://www.w3.org/2000/svg" viewBox="0 0 512 512" width="512" height="512">
	<title>checkmark-circle-svg</title>
	<style>
		.s0 { fill: #33b4fa } 
	</style>
	<path id="Layer" fill-rule="evenodd" class="s0" d="m464 256c0 114.7-93.3 208-208 208-114.7 0-208-93.3-208-208 0-114.7 93.3-208 208-208 114.7 0 208 93.3 208 208zm-96.2-81.3c-0.4-4.2-2.4-8.1-5.7-10.8-3.2-2.7-7.3-4-11.5-3.7-4.2 0.4-8.1 2.3-10.8 5.5l-122.6 145.9-45.3-50.3c-2.8-3.3-6.8-5.3-11.1-5.5-4.3-0.3-8.6 1.1-11.8 4-3.2 2.9-5.1 7-5.3 11.3-0.1 4.3 1.4 8.5 4.4 11.6l57.6 64q1.1 1.3 2.5 2.2 1.3 1 2.9 1.7 1.5 0.7 3.2 1 1.6 0.4 3.3 0.4h0.2q1.8 0 3.4-0.4 1.7-0.4 3.3-1.2 1.5-0.7 2.9-1.7 1.3-1.1 2.4-2.4l134.4-160c2.7-3.3 4-7.4 3.6-11.6z"/>
</svg>